<svg width="289" height="24" viewBox="0 0 289 24" fill="none" xmlns="http://www.w3.org/2000/svg">
<path d="M0.642046 23V1.18182H3.28409V12.0057H3.53977L13.3409 1.18182H16.7926L7.63068 11.0256L16.7926 23H13.5966L6.01136 12.858L3.28409 15.9261V23H0.642046ZM21.1072 23H18.3374L26.3487 1.18182H29.076L37.0874 23H34.3175L27.7976 4.63352H27.6271L21.1072 23ZM22.13 14.4773H33.2947V16.821H22.13V14.4773ZM40.4858 23V1.18182H43.1278V12.0057H43.3835L53.1847 1.18182H56.6364L47.4744 11.0256L56.6364 23H53.4403L45.8551 12.858L43.1278 15.9261V23H40.4858ZM60.951 23H58.1811L66.1925 1.18182H68.9197L76.9311 23H74.1612L67.6413 4.63352H67.4709L60.951 23ZM61.9737 14.4773H73.1385V16.821H61.9737V14.4773ZM97.7132 12.0909C97.7132 14.392 97.2978 16.3807 96.4668 18.0568C95.6358 19.733 94.4959 21.0256 93.0471 21.9347C91.5982 22.8438 89.9434 23.2983 88.0826 23.2983C86.2218 23.2983 84.5669 22.8438 83.1181 21.9347C81.6692 21.0256 80.5293 19.733 79.6983 18.0568C78.8674 16.3807 78.4519 14.392 78.4519 12.0909C78.4519 9.78977 78.8674 7.80114 79.6983 6.125C80.5293 4.44886 81.6692 3.15625 83.1181 2.24716C84.5669 1.33807 86.2218 0.883522 88.0826 0.883522C89.9434 0.883522 91.5982 1.33807 93.0471 2.24716C94.4959 3.15625 95.6358 4.44886 96.4668 6.125C97.2978 7.80114 97.7132 9.78977 97.7132 12.0909ZM95.1564 12.0909C95.1564 10.2017 94.8404 8.60724 94.2083 7.30753C93.5833 6.00781 92.7346 5.02415 91.6621 4.35653C90.5968 3.68892 89.4036 3.35511 88.0826 3.35511C86.7615 3.35511 85.5648 3.68892 84.4924 4.35653C83.427 5.02415 82.5783 6.00781 81.9462 7.30753C81.3212 8.60724 81.0087 10.2017 81.0087 12.0909C81.0087 13.9801 81.3212 15.5746 81.9462 16.8743C82.5783 18.174 83.427 19.1577 84.4924 19.8253C85.5648 20.4929 86.7615 20.8267 88.0826 20.8267C89.4036 20.8267 90.5968 20.4929 91.6621 19.8253C92.7346 19.1577 93.5833 18.174 94.2083 16.8743C94.8404 15.5746 95.1564 13.9801 95.1564 12.0909Z" fill="white"/>
<path d="M119.713 8H117.07C116.914 7.24006 116.641 6.57244 116.25 5.99716C115.867 5.42188 115.398 4.93892 114.844 4.5483C114.297 4.15057 113.69 3.85227 113.022 3.65341C112.355 3.45455 111.659 3.35511 110.934 3.35511C109.613 3.35511 108.416 3.68892 107.344 4.35653C106.279 5.02415 105.43 6.00781 104.798 7.30753C104.173 8.60724 103.86 10.2017 103.86 12.0909C103.86 13.9801 104.173 15.5746 104.798 16.8743C105.43 18.174 106.279 19.1577 107.344 19.8253C108.416 20.4929 109.613 20.8267 110.934 20.8267C111.659 20.8267 112.355 20.7273 113.022 20.5284C113.69 20.3295 114.297 20.0348 114.844 19.6442C115.398 19.2464 115.867 18.7599 116.25 18.1847C116.641 17.6023 116.914 16.9347 117.07 16.1818H119.713C119.514 17.2969 119.151 18.2947 118.626 19.1754C118.1 20.0561 117.447 20.8054 116.666 21.4233C115.884 22.0341 115.007 22.4993 114.034 22.8189C113.068 23.1385 112.035 23.2983 110.934 23.2983C109.073 23.2983 107.419 22.8438 105.97 21.9347C104.521 21.0256 103.381 19.733 102.55 18.0568C101.719 16.3807 101.303 14.392 101.303 12.0909C101.303 9.78977 101.719 7.80114 102.55 6.125C103.381 4.44886 104.521 3.15625 105.97 2.24716C107.419 1.33807 109.073 0.883522 110.934 0.883522C112.035 0.883522 113.068 1.04332 114.034 1.36293C115.007 1.68253 115.884 2.15128 116.666 2.76918C117.447 3.37997 118.1 4.12571 118.626 5.00639C119.151 5.87997 119.514 6.87784 119.713 8ZM142.391 12.0909C142.391 14.392 141.975 16.3807 141.145 18.0568C140.314 19.733 139.174 21.0256 137.725 21.9347C136.276 22.8438 134.621 23.2983 132.76 23.2983C130.9 23.2983 129.245 22.8438 127.796 21.9347C126.347 21.0256 125.207 19.733 124.376 18.0568C123.545 16.3807 123.13 14.392 123.13 12.0909C123.13 9.78977 123.545 7.80114 124.376 6.125C125.207 4.44886 126.347 3.15625 127.796 2.24716C129.245 1.33807 130.9 0.883522 132.76 0.883522C134.621 0.883522 136.276 1.33807 137.725 2.24716C139.174 3.15625 140.314 4.44886 141.145 6.125C141.975 7.80114 142.391 9.78977 142.391 12.0909ZM139.834 12.0909C139.834 10.2017 139.518 8.60724 138.886 7.30753C138.261 6.00781 137.412 5.02415 136.34 4.35653C135.275 3.68892 134.081 3.35511 132.76 3.35511C131.439 3.35511 130.243 3.68892 129.17 4.35653C128.105 5.02415 127.256 6.00781 126.624 7.30753C125.999 8.60724 125.686 10.2017 125.686 12.0909C125.686 13.9801 125.999 15.5746 126.624 16.8743C127.256 18.174 128.105 19.1577 129.17 19.8253C130.243 20.4929 131.439 20.8267 132.76 20.8267C134.081 20.8267 135.275 20.4929 136.34 19.8253C137.412 19.1577 138.261 18.174 138.886 16.8743C139.518 15.5746 139.834 13.9801 139.834 12.0909ZM146.833 1.18182H149.987L157.402 19.2926H157.657L165.072 1.18182H168.225V23H165.754V6.4233H165.541L158.723 23H156.336L149.518 6.4233H149.305V23H146.833V1.18182ZM173.523 1.18182H176.676L184.091 19.2926H184.347L191.762 1.18182H194.915V23H192.443V6.4233H192.23L185.412 23H183.026L176.208 6.4233H175.994V23H173.523V1.18182ZM214.531 1.18182H217.173V15.6278C217.173 17.1193 216.821 18.451 216.118 19.6229C215.422 20.7876 214.438 21.7074 213.167 22.3821C211.896 23.0497 210.404 23.3835 208.692 23.3835C206.981 23.3835 205.489 23.0497 204.218 22.3821C202.947 21.7074 201.96 20.7876 201.256 19.6229C200.56 18.451 200.212 17.1193 200.212 15.6278V1.18182H202.854V15.4148C202.854 16.4801 203.089 17.4283 203.558 18.2592C204.026 19.0831 204.694 19.733 205.56 20.2088C206.434 20.6776 207.478 20.9119 208.692 20.9119C209.907 20.9119 210.951 20.6776 211.825 20.2088C212.698 19.733 213.366 19.0831 213.827 18.2592C214.296 17.4283 214.531 16.4801 214.531 15.4148V1.18182ZM239.75 1.18182V23H237.193L225.304 5.86932H225.091V23H222.449V1.18182H225.006L236.937 18.3551H237.15V1.18182H239.75ZM247.679 1.18182V23H245.037V1.18182H247.679ZM251.783 3.52557V1.18182H268.146V3.52557H261.286V23H258.644V3.52557H251.783ZM270.349 1.18182H273.375L279.426 11.3665H279.681L285.733 1.18182H288.758L280.875 14.0085V23H278.233V14.0085L270.349 1.18182Z" fill="black"/>
</svg>
